<svg width="1920" height="1080" viewBox="0 0 1920 1080" xmlns="http://www.w3.org/2000/svg"><rect width="1920" height="1080" fill="#b3e6e6"/><path d="M 0,1080 C 0,1080 0,135 0,135 C 29.54388549569118,115.46589645626534 59.08777099138236,95.93179291253068 87,99 C 114.91222900861764,102.06820708746932 141.1928015301618,127.73872480614259 171,142 C 200.8071984698382,156.26127519385741 234.1410228879704,159.11330786289892 267,164 C 299.8589771120296,168.88669213710108 332.2431069179566,175.80804374226184 354,171 C 375.7568930820434,166.19195625773816 386.8865494402033,149.65451716805362 415,139 C 443.1134505597967,128.34548283194638 488.2106953212302,123.57388758552366 522,137 C 555.7893046787698,150.42611241447634 578.2706692748759,182.04993248985167 592,178 C 605.7293307251241,173.95006751014833 610.7066275792665,134.2263824550697 643,116 C 675.2933724207335,97.7736175449303 734.9028204080581,101.04453768986951 761,110 C 787.0971795919419,118.95546231013049 779.6820907885008,133.5954667854522 811,146 C 842.3179092114992,158.4045332145478 912.3688164379389,168.57359516832176 938,176 C 963.6311835620611,183.42640483167824 944.8426434597433,188.11015254126076 971,181 C 997.1573565402567,173.88984745873924 1068.260609723088,154.98579466663523 1108,143 C 1147.739390276912,131.01420533336477 1156.1149176479046,125.9466687921983 1174,128 C 1191.8850823520954,130.0533312078017 1219.2797196852928,139.2275301645716 1248,129 C 1276.7202803147072,118.7724698354284 1306.7662036109239,89.14321054951533 1329,85 C 1351.2337963890761,80.85678945048467 1365.6554658710118,102.19962763736709 1390,114 C 1414.3445341289882,125.80037236263291 1448.6119329050287,128.05827890101637 1488,130 C 1527.3880670949713,131.94172109898363 1571.8968025088734,133.56725675856745 1604,135 C 1636.1031974911266,136.43274324143255 1655.800857059477,137.67269406471388 1677,131 C 1698.199142940523,124.32730593528613 1720.8997692532175,109.74196698257704 1748,115 C 1775.1002307467825,120.25803301742296 1806.6000659276522,145.359438004978 1836,152 C 1865.3999340723478,158.640561995022 1892.6999670361738,146.82028099751102 1920,135 C 1920,135 1920,1080 1920,1080 Z" fill="#33beff" opacity="0.075"/><path d="M 0,1080 C 0,1080 0,270 0,270 C 22.06474839014485,298.3732970256792 44.1294967802897,326.7465940513585 68,319 C 91.8705032197103,311.2534059486415 117.54676126898605,267.38692082024517 149,257 C 180.45323873101395,246.61307917975483 217.68345814376613,269.7057226676609 251,285 C 284.31654185623387,300.2942773323391 313.71940615594934,307.7901885091115 341,299 C 368.28059384405066,290.2098114908885 393.43891723243627,265.13352329589327 423,266 C 452.56108276756373,266.86647670410673 486.52492491430564,293.67571830731544 516,302 C 545.4750750856944,310.32428169268456 570.461383110341,300.1636034748448 587,283 C 603.538616889659,265.8363965251552 611.6295426443305,241.6698677933054 640,249 C 668.3704573556695,256.3301322066946 717.0204463123368,295.15692535193347 750,293 C 782.9795536876632,290.84307464806653 800.2886721063217,247.7024307989608 822,245 C 843.7113278936783,242.2975692010392 869.8248652623765,280.0333514522236 905,282 C 940.1751347376235,283.9666485477764 984.4118668441724,250.16416339214467 1021,252 C 1057.5881331558276,253.83583660785533 1086.527667360934,291.3099949791979 1111,305 C 1135.472332639066,318.6900050208021 1155.477463712092,308.59585669106383 1181,298 C 1206.522536287908,287.40414330893617 1237.5624777906983,276.30657825654674 1271,267 C 1304.4375222093017,257.69342174345326 1340.2726251251154,250.17783028274917 1359,244 C 1377.7273748748846,237.82216971725083 1379.3470217088395,232.98210061245652 1399,248 C 1418.6529782911605,263.0178993875435 1456.3392880395263,297.89376726742466 1490,297 C 1523.6607119604737,296.10623273257534 1553.295826133055,259.44283031784477 1577,250 C 1600.704173866945,240.55716968215523 1618.4774074282532,258.33491146119627 1652,262 C 1685.5225925717468,265.66508853880373 1734.7945441539318,255.2175238373702 1768,259 C 1801.2054558460682,262.7824761626298 1818.3444159560195,280.7949931893228 1841,285 C 1863.6555840439805,289.2050068106772 1891.8277920219903,279.6025034053386 1920,270 C 1920,270 1920,1080 1920,1080 Z" fill="#33beff" opacity="0.15"/><path d="M 0,1080 C 0,1080 0,405 0,405 C 9.948219185772523,403.4169989955883 19.896438371545045,401.83399799117666 58,408 C 96.10356162845495,414.16600200882334 162.36246569959235,428.08100703088166 190,433 C 217.63753430040765,437.91899296911834 206.65369883008552,433.8419738852968 220,416 C 233.34630116991448,398.1580261147032 271.02273898006575,366.55109742793144 316,360 C 360.97726101993425,353.44890257206856 413.25534524965144,371.95363640297745 446,371 C 478.74465475034856,370.04636359702255 491.9558800213283,349.6343569601587 514,369 C 536.0441199786717,388.3656430398413 566.9211346650352,447.508935756388 595,443 C 623.0788653349648,438.491064243612 648.3595813185311,370.32990001428954 679,355 C 709.6404186814689,339.67009998571046 745.6405400608406,377.17146418645365 763,408 C 780.3594599391594,438.82853581354635 779.0782584381068,462.9842432398957 806,446 C 832.9217415618932,429.0157567601043 888.0464261867324,370.8915628539636 922,366 C 955.9535738132676,361.1084371460364 968.7360368149639,409.44950534425 988,427 C 1007.2639631850361,444.55049465575 1033.0094265534121,431.3104157690366 1065,431 C 1096.9905734465879,430.6895842309634 1135.2262569713878,443.3088315796038 1163,430 C 1190.7737430286122,416.6911684203962 1208.0855455610372,377.45425791254803 1232,360 C 1255.9144544389628,342.54574208745197 1286.4315607844635,346.8741367702042 1326,366 C 1365.5684392155365,385.1258632297958 1414.1882113011084,419.04919500663505 1434,416 C 1453.8117886988916,412.95080499336495 1444.815594011102,372.9290832032554 1472,362 C 1499.184405988898,351.0709167967446 1562.5494126544838,369.2344721803432 1596,390 C 1629.4505873455162,410.7655278196568 1632.9867553709632,434.1330280753719 1654,447 C 1675.0132446290368,459.8669719246281 1713.503565861664,462.23341551816907 1740,442 C 1766.496434138336,421.76658448183093 1780.9989811823818,378.9333098519516 1809,369 C 1837.0010188176182,359.0666901480484 1878.5005094088092,382.03334507402417 1920,405 C 1920,405 1920,1080 1920,1080 Z" fill="#33beff" opacity="0.22499999999999998"/><path d="M 0,1080 C 0,1080 0,540 0,540 C 35.68013003594844,564.8150314208234 71.36026007189687,589.6300628416468 107,579 C 142.63973992810313,568.3699371583532 178.2390897483609,522.2947800542362 194,523 C 209.7609102516391,523.7052199457638 205.68338093465943,571.1908169414085 229,565 C 252.31661906534057,558.8091830585915 303.0273865130014,498.9419521801301 345,504 C 386.9726134869986,509.0580478198699 420.207073013335,579.0413743380708 443,590 C 465.792926986665,600.9586256619292 478.1443214336588,552.8925504675865 502,526 C 525.8556785663412,499.10744953241345 561.2156412520296,493.3884237915829 585,501 C 608.7843587479704,508.6115762084171 620.9931135582228,529.5537543660819 640,544 C 659.0068864417772,558.4462456339181 684.8119045150788,566.3965587440894 725,560 C 765.1880954849212,553.6034412559106 819.7592683814619,532.8600106575602 854,517 C 888.2407316185381,501.1399893424397 902.1510219590735,490.1633986256694 914,503 C 925.8489780409265,515.8366013743306 935.6366437822438,552.4863948397623 972,549 C 1008.3633562177562,545.5136051602377 1071.3024029119508,501.89102201528164 1107,503 C 1142.6975970880492,504.10897798471836 1151.153744569953,549.9495170991115 1172,549 C 1192.846255430047,548.0504829008885 1226.0826188082362,500.3109095882724 1256,498 C 1285.9173811917638,495.6890904117276 1312.5157801971022,538.8068445477988 1337,547 C 1361.4842198028978,555.1931554522012 1383.8542604033548,528.4617122205323 1404,516 C 1424.1457395966452,503.5382877794677 1442.0671781894787,505.346306570072 1482,518 C 1521.9328218105213,530.653693429928 1583.877026838731,554.1530614991796 1615,562 C 1646.122973161269,569.8469385008204 1646.424714455598,562.0414474332096 1666,545 C 1685.575285544402,527.9585525667904 1724.4241153388773,501.681148767982 1756,514 C 1787.5758846611227,526.318851232018 1811.8788241888924,577.2339574948622 1838,588 C 1864.1211758111076,598.7660425051378 1892.0605879055538,569.3830212525688 1920,540 C 1920,540 1920,1080 1920,1080 Z" fill="#33beff" opacity="0.3"/><path d="M 0,1080 C 0,1080 0,675 0,675 C 15.982000753832558,708.1962466396449 31.964001507665117,741.3924932792899 65,723 C 98.03599849233488,704.6075067207101 148.12599472317206,634.6262735224857 177,634 C 205.87400527682794,633.3737264775143 213.53201959964673,702.1024126307676 244,709 C 274.46798040035327,715.8975873692324 327.745926878241,660.964075954444 361,636 C 394.254073121759,611.035924045556 407.48427288738947,616.0412835514564 434,632 C 460.51572711261053,647.9587164485436 500.31698157220137,674.8707898397302 529,697 C 557.6830184277986,719.1292101602698 575.2478008238052,736.4755570896228 590,720 C 604.7521991761948,703.5244429103772 616.6918151325781,653.2269818017788 648,648 C 679.3081848674219,642.7730181982212 729.9849386458824,682.6165157032617 758,693 C 786.0150613541176,703.3834842967383 791.3684302838926,684.3069553851742 814,681 C 836.6315697161074,677.6930446148258 876.5413402185469,690.1556627560417 910,689 C 943.4586597814531,687.8443372439583 970.4662088419202,673.0703935906589 1000,667 C 1029.5337911580798,660.9296064093411 1061.5938244137724,663.5627628813226 1090,672 C 1118.4061755862276,680.4372371186774 1143.1584935029907,694.6785548840509 1176,700 C 1208.8415064970093,705.3214451159491 1249.7722015742636,701.7230175824739 1272,693 C 1294.2277984257364,684.2769824175261 1297.7527001999554,670.4293747860532 1321,663 C 1344.2472998000446,655.5706252139468 1387.2169976259145,654.5594832733126 1415,672 C 1442.7830023740855,689.4405167266874 1455.379309296387,725.3326921206964 1483,722 C 1510.620690703613,718.6673078793036 1553.2657651885372,676.1097482439017 1585,659 C 1616.7342348114628,641.8902517560983 1637.557629949464,650.2283149036964 1664,670 C 1690.442370050536,689.7716850963036 1722.5037150136059,720.9769921413124 1754,715 C 1785.4962849863941,709.0230078586876 1816.4275099961128,665.8637165310536 1844,653 C 1871.5724900038872,640.1362834689464 1895.7862450019436,657.5681417344732 1920,675 C 1920,675 1920,1080 1920,1080 Z" fill="#33beff" opacity="0.375"/><path d="M 0,1080 C 0,1080 0,810 0,810 C 11.621606943183743,832.6346659801635 23.243213886367485,855.269331960327 52,847 C 80.75678611363251,838.730668039673 126.6487513977138,799.5573381388554 167,799 C 207.3512486022862,798.4426618611446 242.16178052277735,836.5013154842518 264,832 C 285.83821947722265,827.4986845157482 294.70412651117687,780.4373999241376 317,786 C 339.29587348882313,791.5626000758624 375.02171343251524,849.7490848191977 412,854 C 448.97828656748476,858.2509151808023 487.20901975876234,808.5662607990714 509,804 C 530.7909802412377,799.4337392009286 536.1422075324351,839.9858719845164 565,846 C 593.8577924675649,852.0141280154836 646.2221501114975,823.4902512628631 674,815 C 701.7778498885025,806.5097487371369 704.9691920215747,818.0531229640309 728,813 C 751.0308079784253,807.9468770359691 793.9010818022033,786.2972568810134 831,787 C 868.0989181977967,787.7027431189866 899.4264807696121,810.7578495119157 932,819 C 964.5735192303879,827.2421504880843 998.3929951193486,820.671345071324 1016,804 C 1033.6070048806514,787.328654928676 1035.0015387529934,760.5567702027886 1054,770 C 1072.9984612470066,779.4432297972114 1109.600849868678,825.101574117522 1151,835 C 1192.399150131322,844.898425882478 1238.5950617722935,819.0369333271238 1263,813 C 1287.4049382277065,806.9630666728762 1290.0189030421477,820.7506925739831 1314,812 C 1337.9810969578523,803.2493074260169 1383.3293260591151,771.9602963769435 1416,780 C 1448.6706739408849,788.0397036230565 1468.6637927213917,835.4081219182432 1497,842 C 1525.3362072786083,848.5918780817568 1562.0155030553176,814.4072159500839 1594,794 C 1625.9844969446824,773.5927840499161 1653.2741950573375,766.9630142814209 1685,779 C 1716.7258049426625,791.0369857185791 1752.887716715332,821.7407269242327 1778,840 C 1803.112283284668,858.2592730757673 1817.1749380813337,864.0740780216478 1839,857 C 1860.8250619186663,849.9259219783522 1890.4125309593333,829.962960989176 1920,810 C 1920,810 1920,1080 1920,1080 Z" fill="#33beff" opacity="0.44999999999999996"/><path d="M 0,1080 C 0,1080 0,945 0,945 C 38.80324282446269,937.7253183334241 77.60648564892539,930.4506366668481 97,928 C 116.39351435107461,925.5493633331519 116.37730022876116,927.9227716660318 136,918 C 155.62269977123884,908.0772283339682 194.88431343603006,885.8582766690248 225,904 C 255.11568656396994,922.1417233309752 276.08544602711873,980.6441216578695 313,983 C 349.91455397288127,985.3558783421305 402.773902455495,931.5652366994972 430,927 C 457.226097544505,922.4347633005028 458.81894415090164,967.0949315441416 483,970 C 507.18105584909836,972.9050684558584 553.9503209408988,934.0550371239366 584,913 C 614.0496790591012,891.9449628760634 627.3797720855039,888.6849199601121 651,900 C 674.6202279144961,911.3150800398879 708.530590717086,937.2052830356154 742,949 C 775.469409282914,960.7947169643846 808.4978650461524,958.4939478974263 839,948 C 869.5021349538476,937.5060521025737 897.4779490983041,918.8189253746793 930,906 C 962.5220509016959,893.1810746253207 999.5903385606318,886.2303506038563 1024,898 C 1048.4096614393682,909.7696493961437 1060.1606966591692,940.2596722098953 1077,955 C 1093.8393033408308,969.7403277901047 1115.7668748026922,968.7309605565628 1148,957 C 1180.2331251973078,945.2690394434372 1222.771804130062,922.8164855638533 1260,919 C 1297.228195869938,915.1835144361467 1329.1459086770594,930.0030971880241 1350,936 C 1370.8540913229406,941.9969028119759 1380.6445611617003,939.1711256840499 1407,927 C 1433.3554388382997,914.8288743159501 1476.2758466761395,893.3124000757763 1499,896 C 1521.7241533238605,898.6875999242237 1524.2520521337415,925.5792740128444 1561,933 C 1597.7479478662585,940.4207259871556 1668.715944788894,928.3705038728458 1693,926 C 1717.284055211106,923.6294961271542 1694.8841687106828,930.9387104957723 1722,946 C 1749.1158312893172,961.0612895042277 1825.747380368376,983.8746541440651 1867,985 C 1908.252619631624,986.1253458559349 1914.126309815812,965.5626729279675 1920,945 C 1920,945 1920,1080 1920,1080 Z" fill="#33beff" opacity="0.525"/></svg>